# xmcd CD database file
#
# Track frame offsets:
#	150
#	18999
#	36369
#	54800
#	73099
#	87198
#	107293
#	121597
#	136498
#	151643
#	162811
#	179963
#	201070
#
# Disc length: 2912 seconds
#
# Revision: 2
# Processed by: cddbd v1.5.1PL0 Copyright (c) Steve Scherf et al.
# Submitted via: CDex 1.51
#
DISCID=9f0b5e0d
DTITLE=Rudi Wilfer - Rudi Wilfer Trio
DYEAR=1994
DGENRE=Jazz
TTITLE0=Rudi Wilfer Trio - On The Sunny Side Of The Street
TTITLE1=Rudi Wilfer Trio - After You've Gone
TTITLE2=Rudi Wilfer Trio - Smile (Wenn deine Frunde scheiden)
TTITLE3=Rudi Wilfer Trio - Dein ist mein gnzes Herz
TTITLE4=Rudi Wilfer Trio - Smile
TTITLE5=Rudi Wilfer Trio and Karl Ratzer - All Of Me - Bye Bye Blues - Hello Dolly
TTITLE6=Rudi Wilfer Trio and Karl Ratzer - The Shadow Of Your Smile
TTITLE7=Rudi Wilfer Trio and Karl Ratzer - The Lady Is A Tramp
TTITLE8=Rudi Wilfer Trio and Karl Ratzer - You Are The Sunshine Of My Life
TTITLE9=Rudi Wilfer Trio and Karl Ratzer - Sweat Georgia Brown
TTITLE10=Elly Wright and Rudi Wilfer Trio - Flat Foot Floogee
TTITLE11=Elly Wright and Rudi Wilfer Trio - Twee Dee Tweet Blues
TTITLE12=Elly Wright and Rudi Wilfer Trio - Pennies From Heaven
EXTD=rec. live 1982 at Soundborn Studios Vienna, except track 11-13: rec. 1993 at Soundborn Studios YEAR: 1994
EXTT0=Rudi Wilfer (p, org) - Aladar Pege (b) - Rudi Staeger (dr]\n(McHugh/Fields) 
EXTT1=Rudi Wilfer (p, org) - Aladar Pege (b) - Rudi Staeger (dr]\n(Layton/Cramer)
EXTT2=Rudi Wilfer (p, org) - Aladar Pege (b) - Rudi Staeger (dr]\n(Chaplin)
EXTT3=Rudi Wilfer (p, org) - Aladar Pege (b) - Rudi Staeger (dr]\n(Franz Lehar)
EXTT4=Rudi Wilfer (p, org) - Aladar Pege (b) - Rudi Staeger (dr]\n(J. Turner)
EXTT5=Rudi Wilfer (p, org) - Karl Ratzer (g) - Aladar Pege (b) - Rudi Staeger (dr]\n(Simon/Marks - Gray/Bennet)
EXTT6=Rudi Wilfer (p, org) - Karl Ratzer (g) - Aladar Pege (b) - Rudi Staeger (dr]\n(Mandel/Webster)
EXTT7=Rudi Wilfer (p, org) - Karl Ratzer (g) - Aladar Pege (b) - Rudi Staeger (dr]\n(Rodgers/Hart)
EXTT8=Rudi Wilfer (p, org) - Karl Ratzer (g) - Aladar Pege (b) - Rudi Staeger (dr]\n(Wonder)
EXTT9=Rudi Wilfer (p, org) - Karl Ratzer (g) - Aladar Pege (b) - Rudi Staeger (dr]\n(Bernie/Pinkard)
EXTT10=Elly Wright (voc) - Rudi Wilfer (p, org) - - Alfred Winter (b) - Rudi Staeger (dr]\n(Slim Gaillard/Slam Stewart/Bud Green)
EXTT11=Elly Wright (voc) - Rudi Wilfer (p, org) - - Alfred Winter (b) - Rudi Staeger (dr]\n(Elly Wright)
EXTT12=Elly Wright (voc) - Rudi Wilfer (p, org) - - Alfred Winter (b) - Rudi Staeger (dr]\n(Arthur Johnston/John Burke)
PLAYORDER=
